<svg width="227" height="234" viewBox="0 0 227 234" fill="none" xmlns="http://www.w3.org/2000/svg">
<g clip-path="url(#clip0_116_4)">
<circle cx="113.5" cy="116.5" r="110.5" fill="#F5F5F5"/>
<path d="M45.6863 124.551H27.7903L24.2684 137H12.1467L31.6807 77.3739H42.1235L61.289 137H49.1672L45.6863 124.551ZM30.616 114.763H42.9835L36.8816 92.8128L30.616 114.763ZM80.6593 137L62.6404 77.3739H75.3355L85.4507 116.319L86.4745 120.333L87.5802 116.278L97.7363 77.3739H110.431L92.3716 137H80.6593ZM146.428 124.551H128.532L125.01 137H112.889L132.423 77.3739H142.865L162.031 137H149.909L146.428 124.551ZM131.358 114.763H143.725L137.623 92.8128L131.358 114.763ZM185.251 112.511L178.944 119.432V137H167.396V77.3739H178.944V104.689L184.35 97.3994L198.847 77.3739H212.934L192.868 103.747L213.671 137H199.993L185.251 112.511Z" fill="#0079F1"/>
<path d="M74.1233 170.543C72.1485 170.543 70.4649 170.134 69.0726 169.315C67.6802 168.496 66.6109 167.358 65.8647 165.902C65.1275 164.446 64.759 162.758 64.759 160.838V160.155C64.759 158.171 65.1275 156.424 65.8647 154.913C66.6018 153.403 67.6438 152.224 68.9907 151.378C70.3466 150.522 71.9483 150.095 73.7957 150.095C75.2245 150.095 76.5668 150.29 77.8226 150.682C79.0785 151.073 80.1705 151.66 81.0988 152.442V156.852H78.1502L77.5906 154.19C77.2357 153.88 76.7579 153.635 76.1572 153.453C75.5566 153.262 74.8695 153.166 74.096 153.166C72.9857 153.166 72.0257 153.462 71.2157 154.053C70.4149 154.636 69.8006 155.45 69.3729 156.497C68.9452 157.534 68.7313 158.745 68.7313 160.128V160.838C68.7313 162.185 68.9406 163.358 69.3592 164.36C69.7869 165.351 70.4103 166.12 71.2294 166.666C72.0484 167.212 73.054 167.486 74.2462 167.486C74.9469 167.486 75.5885 167.422 76.1709 167.294C76.7624 167.158 77.2493 166.994 77.6315 166.803V163.431L74.7922 163.213V160.414H81.6312V168.455C80.7484 169.083 79.6837 169.588 78.4369 169.97C77.1992 170.352 75.7614 170.543 74.1233 170.543ZM83.6378 170.257V167.868L85.7537 167.458V153.193L83.6378 152.784V150.381H93.0568C94.5856 150.381 95.8961 150.618 96.9882 151.091C98.0802 151.564 98.9174 152.242 99.4999 153.125C100.091 154.008 100.387 155.068 100.387 156.306C100.387 157.47 100.096 158.512 99.5135 159.432C98.9311 160.351 98.1212 161.074 97.0837 161.602C96.0463 162.13 94.8495 162.398 93.4936 162.407H89.7397V167.458L91.8692 167.868V170.257H83.6378ZM96.4285 170.257L93.0841 161.67L96.6742 160.783L99.5681 167.472L101.261 167.868V170.257H96.4285ZM89.7397 159.336H92.9885C94.1352 159.336 94.9906 159.095 95.5548 158.613C96.1282 158.121 96.4148 157.411 96.4148 156.483C96.4148 155.564 96.1327 154.831 95.5685 154.285C95.0043 153.73 94.167 153.453 93.0568 153.453H89.7397V159.336ZM111.963 170.543C110.625 170.543 109.406 170.293 108.305 169.792C107.203 169.292 106.252 168.591 105.452 167.69C104.66 166.78 104.05 165.715 103.622 164.496C103.195 163.267 102.981 161.925 102.981 160.469V160.169C102.981 158.722 103.195 157.389 103.622 156.169C104.05 154.941 104.66 153.871 105.452 152.961C106.243 152.051 107.19 151.346 108.291 150.845C109.392 150.345 110.612 150.095 111.949 150.095C113.296 150.095 114.525 150.345 115.635 150.845C116.745 151.346 117.701 152.051 118.502 152.961C119.302 153.871 119.917 154.941 120.344 156.169C120.781 157.389 121 158.722 121 160.169V160.469C121 161.925 120.781 163.267 120.344 164.496C119.917 165.715 119.302 166.78 118.502 167.69C117.701 168.591 116.745 169.292 115.635 169.792C114.534 170.293 113.31 170.543 111.963 170.543ZM111.963 167.445C113.091 167.445 114.029 167.153 114.775 166.571C115.521 165.988 116.081 165.174 116.454 164.127C116.836 163.081 117.027 161.861 117.027 160.469V160.141C117.027 158.767 116.836 157.561 116.454 156.524C116.072 155.477 115.503 154.663 114.748 154.081C114.001 153.498 113.069 153.207 111.949 153.207C110.839 153.207 109.915 153.498 109.178 154.081C108.441 154.654 107.886 155.459 107.513 156.497C107.149 157.534 106.967 158.749 106.967 160.141V160.469C106.967 161.861 107.149 163.081 107.513 164.127C107.886 165.174 108.441 165.988 109.178 166.571C109.924 167.153 110.853 167.445 111.963 167.445ZM132.425 170.543C130.851 170.543 129.463 170.27 128.262 169.724C127.07 169.178 126.141 168.386 125.477 167.349C124.813 166.312 124.481 165.051 124.481 163.568V153.193L122.365 152.784V150.381H130.596V152.784L128.467 153.193V163.568C128.467 164.441 128.626 165.169 128.944 165.752C129.263 166.334 129.718 166.771 130.309 167.062C130.901 167.344 131.606 167.486 132.425 167.486C133.262 167.486 133.977 167.344 134.568 167.062C135.169 166.771 135.629 166.334 135.947 165.752C136.266 165.169 136.425 164.441 136.425 163.568V153.193L134.309 152.784V150.381H142.54V152.784L140.411 153.193V163.568C140.411 165.051 140.074 166.316 139.401 167.363C138.736 168.4 137.804 169.192 136.602 169.738C135.41 170.275 134.018 170.543 132.425 170.543ZM143.837 170.257V167.868L145.953 167.458V153.193L143.837 152.784V150.381H145.953H153.297C154.817 150.381 156.127 150.65 157.229 151.187C158.33 151.714 159.176 152.456 159.768 153.412C160.359 154.358 160.655 155.464 160.655 156.729C160.655 157.994 160.359 159.104 159.768 160.06C159.176 161.006 158.33 161.743 157.229 162.271C156.127 162.79 154.817 163.049 153.297 163.049H149.939V167.458L152.069 167.868V170.257H143.837ZM149.939 159.978H153.297C154.407 159.978 155.245 159.677 155.809 159.077C156.382 158.467 156.669 157.693 156.669 156.756C156.669 155.801 156.382 155.013 155.809 154.395C155.245 153.767 154.407 153.453 153.297 153.453H149.939V159.978Z" fill="#0079F1"/>
</g>
<defs>
<clipPath id="clip0_116_4">
<rect width="227" height="234" fill="white"/>
</clipPath>
</defs>
</svg>
