<svg width="250" height="131" viewBox="0 0 250 131" fill="none" xmlns="http://www.w3.org/2000/svg">
<g clip-path="url(#clip0_116_10)">
<path d="M125.192 123C58.2597 123 4.00008 97.2564 4.00008 65.5C4.00008 33.7436 58.2597 8 125.192 8" stroke="#0079F1" stroke-width="5.30769"/>
<path d="M123.423 13.3077C59.9103 13.3077 8.4231 36.7522 8.4231 65.6724C8.4231 91.5198 55.3077 115.038 109.269 117.692" stroke="#0079F1" stroke-width="1.76923" stroke-linecap="square"/>
<path d="M125.192 123C192.125 123 246.385 97.2564 246.385 65.5C246.385 33.7436 192.125 8 125.192 8" stroke="#0079F1" stroke-width="5.30769"/>
<path d="M83.4512 66.7368H72.1258L69.8969 74.6154H62.2257L74.5878 36.881H81.1965L93.3254 74.6154H85.6541L83.4512 66.7368ZM73.914 60.5427H81.7408L77.8792 46.6515L73.914 60.5427ZM105.584 74.6154L94.1807 36.881H102.215L108.616 61.5275L109.264 64.0674L109.964 61.5016L116.391 36.881H124.425L112.996 74.6154H105.584ZM147.206 66.7368H135.88L133.651 74.6154H125.98L138.342 36.881H144.951L157.08 74.6154H149.409L147.206 66.7368ZM137.668 60.5427H145.495L141.634 46.6515L137.668 60.5427ZM171.775 59.1173L167.783 63.4972V74.6154H160.475V36.881H167.783V54.1673L171.204 49.5541L180.379 36.881H189.294L176.595 53.5712L189.761 74.6154H181.104L171.775 59.1173Z" fill="#0079F1"/>
<path d="M135.808 112.272L135.438 115.47L128.155 116.808L128.155 118.402L135.023 118.402L135.438 116.808L141.166 116.808L141.166 121.231L107.5 121.231L107.5 116.808L113.253 116.808L113.668 118.402L120.588 118.402L120.588 116.808L113.417 115.47L113.253 112.272L135.808 112.272Z" fill="#0079F1"/>
<path d="M101.448 95.1814C100.198 95.1814 99.1324 94.9223 98.2512 94.4039C97.3701 93.8856 96.6934 93.1657 96.2211 92.2442C95.7546 91.3227 95.5214 90.2544 95.5214 89.0392V88.6073C95.5214 87.3518 95.7546 86.246 96.2211 85.29C96.6876 84.3339 97.3471 83.5881 98.1994 83.0525C99.0575 82.5111 100.071 82.2405 101.24 82.2405C102.144 82.2405 102.994 82.3643 103.789 82.6119C104.584 82.8596 105.275 83.231 105.862 83.7263V86.5167H103.996L103.642 84.8321C103.417 84.6363 103.115 84.4808 102.735 84.3656C102.355 84.2447 101.92 84.1842 101.43 84.1842C100.728 84.1842 100.12 84.3714 99.6075 84.7457C99.1007 85.1143 98.712 85.6298 98.4413 86.2921C98.1706 86.9486 98.0353 87.7146 98.0353 88.59V89.0392C98.0353 89.8916 98.1677 90.6345 98.4327 91.268C98.7033 91.8958 99.0979 92.3824 99.6162 92.728C100.135 93.0735 100.771 93.2463 101.525 93.2463C101.969 93.2463 102.375 93.206 102.743 93.1254C103.118 93.039 103.426 92.9353 103.668 92.8144V90.6806L101.871 90.5424V88.7714H106.199V93.8597C105.64 94.2571 104.966 94.5767 104.177 94.8186C103.394 95.0605 102.484 95.1814 101.448 95.1814ZM107.469 95V93.4882L108.808 93.229V84.2015L107.469 83.9423V82.4219H113.43C114.397 82.4219 115.227 82.5716 115.918 82.8711C116.609 83.1706 117.139 83.5996 117.507 84.1583C117.882 84.7169 118.069 85.3879 118.069 86.1711C118.069 86.9083 117.884 87.5677 117.516 88.1494C117.147 88.7311 116.635 89.189 115.978 89.523C115.322 89.857 114.564 90.0269 113.706 90.0327H111.33V93.229L112.678 93.4882V95H107.469ZM115.563 95L113.447 89.5662L115.719 89.0047L117.55 93.2377L118.622 93.4882V95H115.563ZM111.33 88.0889H113.386C114.112 88.0889 114.653 87.9363 115.011 87.6311C115.373 87.3201 115.555 86.8709 115.555 86.2834C115.555 85.7017 115.376 85.2381 115.019 84.8926C114.662 84.5413 114.132 84.3656 113.43 84.3656H111.33V88.0889ZM125.394 95.1814C124.548 95.1814 123.776 95.023 123.079 94.7063C122.382 94.3895 121.781 93.9461 121.274 93.3759C120.773 92.8 120.387 92.1262 120.116 91.3544C119.845 90.5769 119.71 89.7274 119.71 88.806V88.6159C119.71 87.7002 119.845 86.8565 120.116 86.0847C120.387 85.3072 120.773 84.6305 121.274 84.0546C121.775 83.4787 122.374 83.0324 123.071 82.7156C123.767 82.3988 124.539 82.2405 125.386 82.2405C126.238 82.2405 127.016 82.3988 127.718 82.7156C128.421 83.0324 129.026 83.4787 129.532 84.0546C130.039 84.6305 130.428 85.3072 130.699 86.0847C130.975 86.8565 131.113 87.7002 131.113 88.6159V88.806C131.113 89.7274 130.975 90.5769 130.699 91.3544C130.428 92.1262 130.039 92.8 129.532 93.3759C129.026 93.9461 128.421 94.3895 127.718 94.7063C127.021 95.023 126.247 95.1814 125.394 95.1814ZM125.394 93.2204C126.109 93.2204 126.702 93.0361 127.174 92.6675C127.646 92.2989 128 91.7835 128.237 91.1212C128.478 90.4589 128.599 89.6871 128.599 88.806V88.5986C128.599 87.729 128.478 86.9659 128.237 86.3093C127.995 85.647 127.635 85.1316 127.157 84.763C126.684 84.3944 126.094 84.2101 125.386 84.2101C124.683 84.2101 124.099 84.3944 123.632 84.763C123.166 85.1258 122.814 85.6355 122.578 86.2921C122.348 86.9486 122.233 87.7175 122.233 88.5986V88.806C122.233 89.6871 122.348 90.4589 122.578 91.1212C122.814 91.7835 123.166 92.2989 123.632 92.6675C124.104 93.0361 124.692 93.2204 125.394 93.2204ZM138.344 95.1814C137.348 95.1814 136.469 95.0086 135.709 94.6631C134.955 94.3175 134.367 93.8165 133.947 93.1599C133.526 92.5034 133.316 91.7057 133.316 90.767V84.2015L131.977 83.9423V82.4219H137.186V83.9423L135.839 84.2015V90.767C135.839 91.3199 135.94 91.7806 136.141 92.1492C136.343 92.5178 136.631 92.7942 137.005 92.9785C137.379 93.1571 137.826 93.2463 138.344 93.2463C138.874 93.2463 139.326 93.1571 139.7 92.9785C140.08 92.7942 140.371 92.5178 140.573 92.1492C140.774 91.7806 140.875 91.3199 140.875 90.767V84.2015L139.536 83.9423V82.4219H144.745V83.9423L143.398 84.2015V90.767C143.398 91.7057 143.185 92.5063 142.758 93.1686C142.338 93.8251 141.748 94.3262 140.987 94.6717C140.233 95.0115 139.352 95.1814 138.344 95.1814ZM145.566 95V93.4882L146.905 93.229V84.2015L145.566 83.9423V82.4219H146.905H151.553C152.515 82.4219 153.344 82.5918 154.041 82.9316C154.738 83.2656 155.273 83.735 155.648 84.3397C156.022 84.9387 156.209 85.6384 156.209 86.4389C156.209 87.2395 156.022 87.9421 155.648 88.5468C155.273 89.1458 154.738 89.6123 154.041 89.9463C153.344 90.2746 152.515 90.4387 151.553 90.4387H149.428V93.229L150.775 93.4882V95H145.566ZM149.428 88.495H151.553C152.255 88.495 152.785 88.3049 153.142 87.9248C153.505 87.5389 153.687 87.0494 153.687 86.4562C153.687 85.8515 153.505 85.3533 153.142 84.9617C152.785 84.5643 152.255 84.3656 151.553 84.3656H149.428V88.495Z" fill="#0079F1"/>
</g>
<defs>
<clipPath id="clip0_116_10">
<rect width="250" height="131" fill="white"/>
</clipPath>
</defs>
</svg>
