<svg width="141" height="71" viewBox="0 0 141 71" fill="none" xmlns="http://www.w3.org/2000/svg">
<g clip-path="url(#clip0_111_127)">
<rect width="141" height="71" fill="white"/>
<path d="M70.5 68C32.6685 68 2 53.4493 2 35.5C2 17.5507 32.6685 3 70.5 3" stroke="#0079F1" stroke-width="3"/>
<path d="M69.5 6C33.6015 6 4.5 19.2512 4.5 35.5974C4.5 50.2069 31 63.5 61.5 65" stroke="#0079F1" stroke-linecap="square"/>
<path d="M70.5 68C108.332 68 139 53.4493 139 35.5C139 17.5507 108.332 3 70.5 3" stroke="#0079F1" stroke-width="3"/>
<path d="M46.9072 36.5469H40.5059L39.2461 41H34.9102L41.8975 19.6719H45.6328L52.4883 41H48.1523L46.9072 36.5469ZM41.5166 33.0459H45.9404L43.7578 25.1943L41.5166 33.0459ZM59.417 41L52.9717 19.6719H57.5127L61.1309 33.6025L61.4971 35.0381L61.8926 33.5879L65.5254 19.6719H70.0664L63.6064 41H59.417ZM82.9424 36.5469H76.541L75.2812 41H70.9453L77.9326 19.6719H81.668L88.5234 41H84.1875L82.9424 36.5469ZM77.5518 33.0459H81.9756L79.793 25.1943L77.5518 33.0459ZM96.8291 32.2402L94.5732 34.7158V41H90.4424V19.6719H94.5732V29.4424L96.5068 26.835L101.692 19.6719H106.731L99.5537 29.1055L106.995 41H102.103L96.8291 32.2402Z" fill="#0079F1"/>
<path d="M76.5 61.9365L76.291 63.7438L72.1748 64.5L72.1748 65.4014L76.0566 65.4014L76.291 64.5L79.5283 64.5L79.5283 67L60.5 67L60.5 64.5L63.752 64.5L63.9863 65.4014L67.8975 65.4014L67.8975 64.5L63.8445 63.7438L63.752 61.9365L76.5 61.9365Z" fill="#0079F1"/>
<path d="M57.0791 52.1025C56.3727 52.1025 55.7705 51.9561 55.2725 51.6631C54.7744 51.3701 54.3919 50.9632 54.125 50.4424C53.8613 49.9215 53.7295 49.3177 53.7295 48.6309V48.3867C53.7295 47.6771 53.8613 47.0521 54.125 46.5117C54.3887 45.9714 54.7614 45.5498 55.2432 45.2471C55.7282 44.9411 56.3011 44.7881 56.9619 44.7881C57.473 44.7881 57.9531 44.8581 58.4023 44.998C58.8516 45.138 59.2422 45.348 59.5742 45.6279V47.2051H58.5195L58.3193 46.2529C58.1924 46.1423 58.0215 46.0544 57.8066 45.9893C57.5918 45.9209 57.346 45.8867 57.0693 45.8867C56.6722 45.8867 56.3288 45.9925 56.0391 46.2041C55.7526 46.4124 55.5329 46.7038 55.3799 47.0781C55.2269 47.4492 55.1504 47.8822 55.1504 48.377V48.6309C55.1504 49.1126 55.2253 49.5326 55.375 49.8906C55.528 50.2454 55.751 50.5205 56.0439 50.7158C56.3369 50.9111 56.6966 51.0088 57.123 51.0088C57.3737 51.0088 57.6032 50.986 57.8115 50.9404C58.0231 50.8916 58.1973 50.833 58.334 50.7646V49.5586L57.3184 49.4805V48.4795H59.7646V51.3555C59.4489 51.5801 59.068 51.7607 58.6221 51.8975C58.1794 52.0342 57.665 52.1025 57.0791 52.1025ZM60.4824 52V51.1455L61.2393 50.999V45.8965L60.4824 45.75V44.8906H63.8516C64.3984 44.8906 64.8672 44.9753 65.2578 45.1445C65.6484 45.3138 65.9479 45.5563 66.1562 45.8721C66.3678 46.1878 66.4736 46.5671 66.4736 47.0098C66.4736 47.4264 66.3695 47.7992 66.1611 48.1279C65.9528 48.4567 65.6631 48.7155 65.292 48.9043C64.9209 49.0931 64.4928 49.1891 64.0078 49.1924H62.665V50.999L63.4268 51.1455V52H60.4824ZM65.0576 52L63.8613 48.9287L65.1455 48.6113L66.1807 51.0039L66.7861 51.1455V52H65.0576ZM62.665 48.0938H63.8271C64.2373 48.0938 64.5433 48.0075 64.7451 47.835C64.9502 47.6592 65.0527 47.4053 65.0527 47.0732C65.0527 46.7445 64.9518 46.4824 64.75 46.2871C64.5482 46.0885 64.2487 45.9893 63.8516 45.9893H62.665V48.0938ZM70.6143 52.1025C70.1357 52.1025 69.6995 52.013 69.3057 51.834C68.9118 51.6549 68.5716 51.4043 68.2852 51.082C68.002 50.7565 67.7839 50.3757 67.6309 49.9395C67.4779 49.5 67.4014 49.0199 67.4014 48.499V48.3916C67.4014 47.874 67.4779 47.3971 67.6309 46.9609C67.7839 46.5215 68.002 46.139 68.2852 45.8135C68.5684 45.488 68.9069 45.2357 69.3008 45.0566C69.6947 44.8776 70.1309 44.7881 70.6094 44.7881C71.0911 44.7881 71.5306 44.8776 71.9277 45.0566C72.3249 45.2357 72.6667 45.488 72.9531 45.8135C73.2396 46.139 73.4593 46.5215 73.6123 46.9609C73.7686 47.3971 73.8467 47.874 73.8467 48.3916V48.499C73.8467 49.0199 73.7686 49.5 73.6123 49.9395C73.4593 50.3757 73.2396 50.7565 72.9531 51.082C72.6667 51.4043 72.3249 51.6549 71.9277 51.834C71.5339 52.013 71.096 52.1025 70.6143 52.1025ZM70.6143 50.9941C71.0179 50.9941 71.3532 50.89 71.6201 50.6816C71.887 50.4733 72.0872 50.182 72.2207 49.8076C72.3574 49.4333 72.4258 48.9971 72.4258 48.499V48.3818C72.4258 47.8903 72.3574 47.459 72.2207 47.0879C72.084 46.7135 71.8805 46.4222 71.6104 46.2139C71.3434 46.0055 71.0098 45.9014 70.6094 45.9014C70.2122 45.9014 69.8818 46.0055 69.6182 46.2139C69.3545 46.4189 69.1559 46.707 69.0225 47.0781C68.8923 47.4492 68.8271 47.8838 68.8271 48.3818V48.499C68.8271 48.9971 68.8923 49.4333 69.0225 49.8076C69.1559 50.182 69.3545 50.4733 69.6182 50.6816C69.8851 50.89 70.2171 50.9941 70.6143 50.9941ZM77.9336 52.1025C77.3704 52.1025 76.874 52.0049 76.4443 51.8096C76.0179 51.6143 75.6859 51.3311 75.4482 50.96C75.2106 50.5889 75.0918 50.138 75.0918 49.6074V45.8965L74.335 45.75V44.8906H77.2793V45.75L76.5176 45.8965V49.6074C76.5176 49.9199 76.5745 50.1803 76.6885 50.3887C76.8024 50.597 76.9652 50.7533 77.1768 50.8574C77.3883 50.9583 77.6406 51.0088 77.9336 51.0088C78.2331 51.0088 78.4886 50.9583 78.7002 50.8574C78.915 50.7533 79.0794 50.597 79.1934 50.3887C79.3073 50.1803 79.3643 49.9199 79.3643 49.6074V45.8965L78.6074 45.75V44.8906H81.5518V45.75L80.79 45.8965V49.6074C80.79 50.138 80.6696 50.5905 80.4287 50.9648C80.1911 51.3359 79.8574 51.6191 79.4277 51.8145C79.0013 52.0065 78.5033 52.1025 77.9336 52.1025ZM82.0156 52V51.1455L82.7725 50.999V45.8965L82.0156 45.75V44.8906H82.7725H85.3994C85.943 44.8906 86.4118 44.9867 86.8057 45.1787C87.1995 45.3675 87.5023 45.6328 87.7139 45.9746C87.9255 46.3132 88.0312 46.7087 88.0312 47.1611C88.0312 47.6136 87.9255 48.0107 87.7139 48.3525C87.5023 48.6911 87.1995 48.9548 86.8057 49.1436C86.4118 49.3291 85.943 49.4219 85.3994 49.4219H84.1982V50.999L84.96 51.1455V52H82.0156ZM84.1982 48.3232H85.3994C85.7965 48.3232 86.096 48.2158 86.2979 48.001C86.5029 47.7829 86.6055 47.5062 86.6055 47.1709C86.6055 46.8291 86.5029 46.5475 86.2979 46.3262C86.096 46.1016 85.7965 45.9893 85.3994 45.9893H84.1982V48.3232Z" fill="#0079F1"/>
</g>
<defs>
<clipPath id="clip0_111_127">
<rect width="141" height="71" fill="white"/>
</clipPath>
</defs>
</svg>
